<?xml version="1.0" encoding="UTF-8" standalone="no"?>
<svg
   width="100"
   height="80"
   version="1.1"
   id="svg10"
   sodipodi:docname="logo.svg"
   inkscape:version="1.4.1-rc (d9e8dc1fe0, 2025-03-10)"
   xmlns:inkscape="http://www.inkscape.org/namespaces/inkscape"
   xmlns:sodipodi="http://sodipodi.sourceforge.net/DTD/sodipodi-0.dtd"
   xmlns="http://www.w3.org/2000/svg"
   xmlns:svg="http://www.w3.org/2000/svg">
  <defs
     id="defs10" />
  <sodipodi:namedview
     id="namedview10"
     pagecolor="#ffffff"
     bordercolor="#000000"
     borderopacity="0.25"
     inkscape:showpageshadow="2"
     inkscape:pageopacity="0.0"
     inkscape:pagecheckerboard="0"
     inkscape:deskcolor="#d1d1d1"
     showgrid="false"
     inkscape:zoom="14.575"
     inkscape:cx="50.017153"
     inkscape:cy="40"
     inkscape:window-width="1910"
     inkscape:window-height="1211"
     inkscape:window-x="383"
     inkscape:window-y="127"
     inkscape:window-maximized="0"
     inkscape:current-layer="svg10" />
  <!-- White background -->
  <rect
     width="100"
     height="80"
     fill="white"
     id="rect1" />
  <!-- Draw the globe -->
  <circle
     cx="40"
     cy="40"
     r="30"
     stroke="black"
     stroke-width="1"
     fill="none"
     id="circle1" />
  <!-- Draw meridians -->
  <line
     x1="40"
     y1="40"
     x2="70"
     y2="40"
     stroke="black"
     stroke-width="0.5"
     id="line1" />
  <line
     x1="40"
     y1="40"
     x2="10"
     y2="40"
     stroke="black"
     stroke-width="0.5"
     id="line2" />
  <line
     x1="40"
     y1="40"
     x2="60"
     y2="60"
     stroke="black"
     stroke-width="0.5"
     id="line3" />
  <line
     x1="40"
     y1="40"
     x2="20"
     y2="20"
     stroke="black"
     stroke-width="0.5"
     id="line4" />
  <line
     x1="40"
     y1="40"
     x2="40"
     y2="10"
     stroke="black"
     stroke-width="0.5"
     id="line5" />
  <line
     x1="40"
     y1="40"
     x2="40"
     y2="70"
     stroke="black"
     stroke-width="0.5"
     id="line6" />
  <line
     x1="40"
     y1="40"
     x2="60"
     y2="20"
     stroke="black"
     stroke-width="0.5"
     id="line7" />
  <line
     x1="40"
     y1="40"
     x2="20"
     y2="60"
     stroke="black"
     stroke-width="0.5"
     id="line8" />
  <!-- Draw parallels -->
  <path
     d="M 10 40 A 30 30 0 0 1 70 40"
     stroke="black"
     stroke-width="0.5"
     fill="none"
     id="path8" />
  <path
     d="M 20 20 A 30 30 0 0 1 60 20"
     stroke="black"
     stroke-width="0.5"
     fill="none"
     id="path9" />
  <path
     d="M 20 60 A 30 30 0 0 1 60 60"
     stroke="black"
     stroke-width="0.5"
     fill="none"
     id="path10" />
  <path
     style="fill:#000080;stroke-width:0.0686106"
     d="m 55.643225,56.425994 c -0.879484,-0.559495 -3.260692,-1.736647 -4.459692,-2.204651 -3.204738,-1.250902 -6.09257,-1.883476 -9.55403,-2.092793 l -1.35506,-0.08194 v -5.66299 -5.662988 l 8.027444,8.027224 c 4.415094,4.414974 8.027444,8.034993 8.027444,8.044487 0,0.05351 -0.16259,-0.03331 -0.686106,-0.366349 z"
     id="path11" />
  <path
     style="fill:#000080;stroke-width:0.0686106"
     d="m 31.663808,48.782161 c 4.414973,-4.415094 8.034993,-8.027444 8.044487,-8.027444 0.0095,0 0.01726,2.540676 0.01726,5.645946 v 5.645946 l -1.35506,0.08194 c -3.449294,0.208581 -6.360465,0.845562 -9.538544,2.087088 -1.216892,0.475382 -3.289508,1.491773 -4.367482,2.14177 -0.412465,0.248709 -0.767476,0.452197 -0.788912,0.452197 -0.02144,0 3.573276,-3.612349 7.988249,-8.027444 z"
     id="path12" />
  <path
     style="fill:#000080;stroke-width:0.0686106"
     d="M 40.274443,25.931134 V 12.616985 l 0.771869,0.04134 c 4.59516,0.246132 8.324901,1.203534 12.19554,3.130523 2.049175,1.020176 3.654316,2.050217 5.478825,3.515835 l 0.847607,0.680877 -9.629677,9.62986 c -5.296322,5.296422 -9.637436,9.629859 -9.64692,9.629859 -0.0095,0 -0.01724,-5.991367 -0.01724,-13.314149 z"
     id="path13" />
  <path
     style="fill:#000080;stroke-width:0.0686106"
     d="m 30.061393,29.615424 -9.629677,-9.62986 0.847607,-0.680877 c 1.824509,-1.465618 3.42965,-2.495659 5.478825,-3.515835 3.870639,-1.926989 7.60038,-2.884391 12.19554,-3.130523 l 0.771869,-0.04134 v 13.314149 c 0,7.322782 -0.0078,13.314149 -0.01724,13.314149 -0.0095,0 -4.350599,-4.333437 -9.646921,-9.629859 z"
     id="path14" />
  <path
     style="fill:#808000;stroke-width:0.0686106"
     d="m 40.274443,61.036183 v -8.419198 l 0.771869,0.04134 c 4.649779,0.249058 8.382412,1.216381 12.298456,3.187185 2.188593,1.10144 4.259961,2.469202 5.924175,3.91184 l 0.572545,0.496316 0.195215,-0.229751 0.195215,-0.229751 -9.755663,-9.759863 -9.755663,-9.759862 h 14.367394 14.367395 l -0.04221,1.149228 c -0.120881,3.291052 -0.955212,6.930265 -2.321027,10.12393 -3.002162,7.019912 -8.524925,12.542507 -15.545371,15.544896 -3.192795,1.365443 -6.832399,2.199805 -10.123101,2.320673 l -1.149228,0.04221 z"
     id="path15" />
  <path
     style="fill:#808000;stroke-width:0.0686106"
     d="m 10.58683,38.576329 c 0.16236,-4.420356 1.559088,-9.217458 3.840524,-13.190394 3.212794,-5.594821 8.102564,-9.945247 14.025045,-12.478078 3.19198,-1.365094 6.857133,-2.205675 10.12393,-2.321863 l 1.149228,-0.04087 v 0.750744 0.750744 l -1.35506,0.08194 c -1.510171,0.09132 -2.551982,0.215807 -3.927958,0.469352 -4.974335,0.916596 -9.7687,3.149092 -13.687822,6.373732 -0.871291,0.716895 -0.96969,0.824735 -0.866256,0.949365 0.06075,0.0732 0.05394,0.115837 -0.02957,0.185143 -0.09472,0.07861 1.131621,1.330182 9.656011,9.854729 l 9.764506,9.764686 H 24.912014 10.544619 Z"
     id="path16" />
  <path
     style="fill:#808000;stroke-width:0.0686106"
     d="m 50.485098,29.960871 c 8.52439,-8.524547 9.750726,-9.776122 9.656011,-9.854729 -0.08394,-0.06966 -0.09049,-0.111734 -0.02897,-0.185867 0.106805,-0.128693 -0.04316,-0.284384 -1.072689,-1.113662 -1.746213,-1.406559 -3.29228,-2.401096 -5.351628,-3.442536 -3.855135,-1.949592 -7.655341,-2.969276 -12.058319,-3.235527 l -1.35506,-0.08194 v -0.750744 -0.750744 l 1.149228,0.04087 c 4.006032,0.14248 8.34049,1.310059 12.127233,3.266732 5.000762,2.583977 9.191298,6.604221 12.021742,11.533209 2.28052,3.971339 3.678229,8.771815 3.840524,13.190394 l 0.04221,1.149228 H 55.087986 40.720592 Z"
     id="path17" />
  <path
     style="fill:#ffff00;stroke-width:0.0686106"
     d="M 37.80446,69.38682 C 29.381866,68.754786 21.528759,64.446736 16.433633,57.663232 12.920292,52.98567 10.794649,47.081674 10.58683,41.423671 l -0.04221,-1.149228 h 14.367395 14.367394 l -9.755663,9.759862 -9.755663,9.759863 0.195215,0.229751 0.195215,0.229751 0.572545,-0.496316 c 1.664214,-1.442638 3.735582,-2.8104 5.924175,-3.91184 3.916044,-1.970804 7.648677,-2.938127 12.298456,-3.187185 l 0.771869,-0.04134 v 8.408489 8.408488 l -0.806174,-0.01199 c -0.443397,-0.0066 -0.945112,-0.02241 -1.114923,-0.03516 z"
     id="path18" />
  <path
     style="fill:#ffff00;stroke-width:0.0686106"
     d="m 40.274443,61.029783 v -8.40804 l 0.154373,0.03143 c 0.08491,0.01728 0.524872,0.04992 0.977702,0.07253 3.434194,0.17146 6.95058,0.96375 9.926088,2.236484 2.986034,1.277237 5.607101,2.875985 7.908926,4.824134 l 0.613745,0.519443 0.189642,-0.221493 c 0.104302,-0.121821 0.190896,-0.252327 0.19243,-0.290012 0.0015,-0.03769 -4.373672,-4.445062 -9.722679,-9.794168 l -9.725467,-9.725648 h 14.324311 14.324309 l -0.0411,0.84048 c -0.303375,6.203895 -2.324495,11.833317 -5.990749,16.686034 -4.853868,6.424662 -12.435295,10.677129 -20.421411,11.454489 -0.566038,0.0551 -1.407376,0.118672 -1.86964,0.141277 l -0.84048,0.0411 z"
     id="path19" />
  <path
     style="fill:#ffff00;stroke-width:0.0686106"
     d="m 49.128445,31.372213 c 4.586567,-4.59434 8.947405,-8.976538 9.69075,-9.738218 1.402789,-1.43739 1.41379,-1.453338 1.30448,-1.891201 -0.06232,-0.249632 -2.432526,-2.075368 -3.828649,-2.949152 -4.36255,-2.730367 -9.03844,-4.278801 -14.030875,-4.646361 -0.54717,-0.04028 -1.218696,-0.09099 -1.492281,-0.112686 l -0.497427,-0.03944 v -0.714557 c 0,-0.526605 0.02256,-0.714214 0.08576,-0.713248 0.04717,7.2e-4 0.626072,0.03123 1.286449,0.06781 11.400499,0.631384 21.478649,7.901109 25.68066,18.524366 1.271382,3.214225 1.881628,6.090508 2.070702,9.759863 l 0.04154,0.806174 H 55.114395 40.789233 Z"
     id="path20" />
  <path
     style="fill:#ffff00;stroke-width:0.0686106"
     d="m 10.602462,38.885077 c 0.08072,-1.684002 0.245872,-3.10583 0.520023,-4.476844 1.44594,-7.231064 5.37742,-13.514325 11.210277,-17.916176 3.054346,-2.305008 6.807156,-4.090944 10.566037,-5.028303 2.046388,-0.510312 3.736267,-0.753448 5.986278,-0.861292 l 0.84048,-0.04028 v 0.716488 0.716488 l -0.497427,0.03944 c -0.273585,0.02169 -0.945111,0.0724 -1.492281,0.112686 -6.34502,0.467142 -12.32234,2.898603 -17.290134,7.033301 -0.591685,0.49246 -0.608586,0.514658 -0.604726,0.794307 0.0039,0.2808 0.04024,0.324793 1.518964,1.83736 0.833247,0.85232 5.190553,5.23149 9.682902,9.73149 l 8.167907,8.181818 H 24.88647 10.562177 Z"
     id="path21" />
</svg>
