<svg width="100" height="100" xmlns="http://www.w3.org/2000/svg">
  <!-- Draw the globe -->
  <circle cx="40" cy="40" r="30" stroke="black" stroke-width="1" fill="none"/>
  
  <!-- Draw meridians -->
  <line x1="40" y1="40" x2="70" y2="40" stroke="black" stroke-width="0.5"/>
  <line x1="40" y1="40" x2="10" y2="40" stroke="black" stroke-width="0.5"/>
  <line x1="40" y1="40" x2="60" y2="60" stroke="black" stroke-width="0.5"/>
  <line x1="40" y1="40" x2="20" y2="20" stroke="black" stroke-width="0.5"/>
  <line x1="40" y1="40" x2="40" y2="10" stroke="black" stroke-width="0.5"/>
  <line x1="40" y1="40" x2="40" y2="70" stroke="black" stroke-width="0.5"/>
  <line x1="40" y1="40" x2="60" y2="20" stroke="black" stroke-width="0.5"/>
  <line x1="40" y1="40" x2="20" y2="60" stroke="black" stroke-width="0.5"/>
  
  <!-- Draw parallels -->
  <path d="M 10 40 A 30 30 0 0 1 70 40" stroke="black" stroke-width="0.5" fill="none"/>
  <path d="M 20 20 A 30 30 0 0 1 60 20" stroke="black" stroke-width="0.5" fill="none"/>
  <path d="M 20 60 A 30 30 0 0 1 60 60" stroke="black" stroke-width="0.5" fill="none"/>
</svg>
